<?xml version="1.0" standalone="no"?>
<!DOCTYPE svg PUBLIC "-//W3C//DTD SVG 20010904//EN"
 "http://www.w3.org/TR/2001/REC-SVG-20010904/DTD/svg10.dtd">
<svg version="1.0" xmlns="http://www.w3.org/2000/svg"
 width="512.000000pt" height="512.000000pt" viewBox="0 0 512.000000 512.000000"
 preserveAspectRatio="xMidYMid meet">

<g transform="translate(0.000000,512.000000) scale(0.100000,-0.100000)"
fill="#fcffa6" stroke="none">
<path d="M2375 5054 c-16 -2 -73 -9 -125 -15 -435 -49 -869 -231 -1240 -518
-110 -85 -327 -302 -412 -412 -278 -358 -445 -750 -515 -1206 -23 -150 -23
-536 0 -686 112 -727 493 -1334 1087 -1732 330 -221 669 -348 1085 -407 135
-19 503 -16 650 5 373 55 731 192 1035 395 617 413 996 1025 1102 1777 17 117
17 493 0 610 -91 647 -391 1200 -867 1602 -357 302 -802 502 -1265 568 -108
16 -467 29 -535 19z m1759 -1010 c9 -9 14 -25 11 -37 -3 -12 -145 -676 -315
-1476 -182 -858 -315 -1458 -322 -1463 -7 -4 -16 -8 -19 -8 -3 0 -231 160
-505 355 l-499 354 -60 -58 c-216 -209 -499 -471 -508 -471 -7 0 -18 4 -24 8
-7 4 -98 255 -202 557 l-189 550 -513 157 c-282 86 -519 163 -526 171 -19 18
-7 44 25 55 15 5 342 125 727 267 385 141 1152 421 1705 621 553 201 1046 380
1095 399 107 40 100 39 119 19z"/>
<path d="M3385 3487 c-27 -17 -417 -260 -865 -540 -448 -280 -817 -511 -819
-513 -2 -2 49 -177 114 -389 66 -211 121 -382 124 -379 4 4 50 412 51 456 0 9
264 251 587 540 770 686 906 808 916 824 5 8 0 17 -12 24 -29 15 -41 12 -96
-23z"/>
</g>
</svg>
