<?xml version="1.0" standalone="no"?>
<!DOCTYPE svg PUBLIC "-//W3C//DTD SVG 20010904//EN"
 "http://www.w3.org/TR/2001/REC-SVG-20010904/DTD/svg10.dtd">
<svg version="1.0" xmlns="http://www.w3.org/2000/svg"
 width="512.000000pt" height="512.000000pt" viewBox="0 0 512.000000 512.000000"
 preserveAspectRatio="xMidYMid meet">

<g transform="translate(0.000000,512.000000) scale(0.100000,-0.100000)"
fill="#fcffa6" stroke="none">
<path d="M2375 5054 c-16 -2 -73 -9 -125 -15 -435 -49 -869 -231 -1240 -518
-110 -85 -327 -302 -412 -412 -277 -358 -445 -751 -515 -1206 -23 -150 -23
-536 0 -686 60 -388 190 -729 396 -1037 411 -616 1023 -995 1776 -1102 135
-19 503 -16 650 5 373 55 731 192 1035 395 617 413 996 1025 1102 1777 17 119
16 493 -1 615 -88 635 -394 1199 -866 1597 -357 302 -802 502 -1265 568 -108
16 -467 29 -535 19z m393 -735 c275 -63 520 -276 621 -538 86 -223 79 -481
-19 -697 -60 -134 -183 -280 -304 -364 -169 -116 -394 -173 -594 -151 -398 43
-713 331 -786 720 -96 505 251 980 769 1051 81 11 212 2 313 -21z m-1086
-1703 c26 -7 84 -41 130 -74 228 -165 465 -242 748 -242 281 0 514 75 743 238
106 76 169 99 234 87 192 -36 266 -263 130 -399 -142 -141 -482 -308 -738
-362 -46 -10 -85 -18 -87 -20 -2 -1 155 -159 349 -350 236 -235 358 -362 370
-389 11 -23 19 -63 19 -96 0 -175 -183 -288 -340 -209 -20 10 -181 161 -358
335 l-322 317 -322 -317 c-176 -174 -337 -324 -357 -334 -82 -42 -168 -35
-247 20 -84 57 -119 189 -75 284 12 27 133 154 370 389 194 191 351 349 349
350 -2 1 -40 10 -85 20 -255 53 -599 221 -740 362 -129 129 -71 340 107 395
39 11 73 10 122 -5z"/>
<path d="M2443 3915 c-213 -58 -354 -240 -354 -460 0 -141 52 -259 154 -351
219 -197 559 -151 718 97 93 146 93 362 -1 509 -109 170 -327 256 -517 205z"/>
</g>
</svg>
