<?xml version="1.0" standalone="no"?>
<!DOCTYPE svg PUBLIC "-//W3C//DTD SVG 20010904//EN"
 "http://www.w3.org/TR/2001/REC-SVG-20010904/DTD/svg10.dtd">
<svg version="1.0" xmlns="http://www.w3.org/2000/svg"
 width="512.000000pt" height="512.000000pt" viewBox="0 0 512.000000 512.000000"
 preserveAspectRatio="xMidYMid meet">

<g transform="translate(0.000000,512.000000) scale(0.100000,-0.100000)"
fill="#fcffa6" stroke="none">
<path d="M2375 5054 c-16 -2 -73 -9 -125 -15 -435 -49 -869 -231 -1240 -518
-110 -85 -327 -302 -412 -412 -277 -358 -445 -751 -515 -1206 -23 -150 -23
-536 0 -686 112 -727 493 -1334 1087 -1732 330 -221 669 -348 1085 -407 135
-19 503 -16 650 5 373 55 731 192 1035 395 617 413 996 1025 1102 1777 17 119
16 493 -1 615 -88 635 -394 1199 -866 1597 -357 302 -802 502 -1265 568 -108
16 -467 29 -535 19z m258 -1419 c54 -8 120 -24 145 -35 116 -52 128 -94 116
-405 -5 -126 -9 -279 -8 -340 0 -175 37 -265 107 -265 43 0 86 32 165 123 107
123 192 262 332 542 l135 270 70 8 c39 4 224 6 412 5 l341 -3 26 -24 c30 -29
32 -56 10 -132 -36 -119 -115 -246 -319 -509 -255 -328 -295 -389 -295 -456 0
-51 48 -111 266 -329 116 -116 236 -242 267 -281 55 -69 107 -163 107 -195 0
-30 -40 -68 -93 -87 -101 -38 -190 -47 -462 -47 -246 0 -263 1 -315 22 -77 32
-182 115 -268 214 -183 208 -258 269 -332 269 -25 0 -42 -9 -70 -39 -43 -45
-63 -108 -81 -256 -16 -135 -27 -161 -77 -175 -120 -32 -366 -39 -504 -15
-403 70 -757 342 -1088 835 -252 375 -521 860 -585 1054 -32 97 -26 119 36
136 149 40 624 38 707 -3 28 -13 37 -30 151 -267 130 -270 328 -577 410 -638
67 -49 114 -48 147 3 62 95 80 476 33 696 -15 72 -70 128 -157 159 -60 22 -62
24 -49 44 35 52 143 100 277 121 116 18 324 18 443 0z"/>
</g>
</svg>
