<?xml version="1.0" standalone="no"?>
<!DOCTYPE svg PUBLIC "-//W3C//DTD SVG 20010904//EN"
 "http://www.w3.org/TR/2001/REC-SVG-20010904/DTD/svg10.dtd">
<svg version="1.0" xmlns="http://www.w3.org/2000/svg"
 width="654.000000pt" height="408.000000pt" viewBox="0 0 654.000000 408.000000"
 preserveAspectRatio="xMidYMid meet">

<g transform="translate(0.000000,408.000000) scale(0.100000,-0.100000)"
fill="#fcffa6" stroke="none">
<path d="M1012 3701 c-35 -17 -78 -31 -95 -31 -49 0 -237 -98 -259 -134 -3 -6
-44 -50 -91 -97 -132 -134 -173 -239 -142 -361 30 -118 93 -188 298 -331 121
-85 152 -98 230 -97 34 0 89 -1 122 -3 l60 -2 37 -70 c21 -39 38 -82 38 -98 0
-22 57 -231 77 -283 2 -6 -13 -20 -34 -31 -55 -29 -86 -78 -80 -129 l4 -41
-78 -20 -78 -21 -22 24 c-74 78 -296 69 -485 -20 -83 -39 -145 -91 -181 -153
-23 -39 -25 -52 -19 -104 3 -32 14 -76 25 -97 30 -59 150 -166 207 -186 64
-22 90 -20 152 9 135 63 240 164 302 292 53 110 96 173 117 173 10 0 34 12 56
27 32 22 42 25 55 15 9 -7 36 -22 60 -34 41 -22 43 -24 76 -133 112 -359 168
-564 266 -965 45 -184 86 -339 90 -345 4 -5 10 -22 13 -36 10 -38 81 -114 130
-137 97 -46 169 -36 350 47 116 54 271 105 397 130 125 25 341 51 425 51 102
0 254 28 375 70 175 60 231 66 402 46 201 -25 352 -9 688 70 100 24 135 27
270 27 85 -1 218 -8 295 -17 204 -24 407 -31 490 -17 155 27 321 105 358 169
22 37 67 244 67 306 0 56 -14 67 -94 73 l-65 6 -8 -39 c-4 -22 -8 -91 -7 -154
0 -90 4 -122 18 -148 30 -58 21 -68 -126 -131 -128 -54 -225 -67 -374 -47 -60
8 -199 27 -309 41 -257 35 -356 31 -500 -15 -110 -36 -90 -35 -690 -60 l-280
-12 -150 -48 c-106 -35 -166 -49 -205 -49 -30 0 -125 -9 -210 -20 -85 -11
-207 -25 -270 -31 -259 -26 -390 -61 -511 -137 -106 -65 -148 -83 -202 -83
-58 0 -90 16 -138 67 -66 71 -79 97 -94 197 -18 117 -39 203 -105 416 -109
353 -140 516 -140 736 l0 142 46 37 c50 41 83 101 84 150 0 75 -65 135 -147
135 -60 0 -89 14 -98 47 -3 15 -38 94 -77 176 -94 197 -90 221 52 283 126 55
172 97 209 192 11 28 23 74 27 104 3 29 17 89 31 133 74 244 25 366 -174 431
-71 23 -94 36 -132 74 -26 26 -60 50 -76 54 -17 4 -38 15 -48 24 -11 10 -41
17 -80 20 -53 3 -71 -1 -125 -27z m154 -16 c-11 -8 -23 -15 -27 -15 -14 0 -28
-61 -19 -84 10 -27 5 -36 -21 -36 -28 0 -76 -47 -91 -88 l-13 -37 -42 43 -41
43 35 14 c20 8 39 15 44 15 5 0 14 11 20 24 9 19 8 31 -5 57 -9 17 -16 34 -16
36 0 14 93 43 140 42 51 0 53 -1 36 -14z m62 -53 c2 -13 -4 -32 -14 -43 -39
-43 -91 -1 -59 47 22 33 68 30 73 -4z m76 -3 c14 -11 33 -34 42 -50 14 -28 14
-31 -5 -47 -31 -26 -36 -64 -13 -93 20 -23 20 -24 41 -5 11 10 23 33 27 52 6
31 7 32 35 22 38 -13 96 -79 125 -143 21 -44 23 -60 17 -105 l-8 -52 -43 51
c-48 56 -153 136 -194 146 -17 4 -31 18 -39 37 -7 17 -29 47 -48 66 -22 22
-31 37 -23 40 16 5 42 55 42 82 0 25 10 25 44 -1z m-415 -24 c-15 -25 -19 -43
-14 -65 5 -25 3 -30 -12 -30 -28 0 -63 -29 -63 -52 0 -14 -5 -18 -16 -14 -9 3
-21 6 -27 7 -7 0 -2 4 11 9 41 17 50 99 11 112 -15 5 89 67 113 68 16 0 15 -3
-3 -35z m91 6 c15 -30 12 -38 -17 -49 -16 -5 -36 -13 -45 -17 -25 -10 -23 19
3 56 24 34 44 37 59 10z m-200 -92 c0 -29 -89 -55 -104 -30 -6 8 32 39 64 52
15 7 40 -7 40 -22z m382 1 c21 -6 51 -27 72 -51 36 -39 39 -59 11 -59 -8 0
-24 -13 -36 -29 -17 -23 -31 -30 -72 -34 -29 -4 -62 -9 -73 -12 -25 -8 -34 14
-34 81 0 45 27 89 64 104 28 11 25 11 68 0z m394 -32 c76 -51 94 -86 93 -177
0 -42 -6 -94 -13 -116 -12 -39 -13 -36 -21 80 -4 66 -13 132 -21 146 -13 25
-49 60 -90 86 -11 6 -14 12 -8 12 7 1 34 -14 60 -31z m-186 10 c0 -19 -18 -43
-25 -36 -9 9 4 48 16 48 5 0 9 -6 9 -12z m-447 -38 c14 -11 39 -43 56 -70 l31
-50 -25 0 c-14 0 -42 -7 -62 -15 -19 -8 -37 -15 -39 -15 -2 0 -15 22 -29 50
-24 47 -32 99 -18 113 13 14 61 6 86 -13z m-240 -45 c-20 -20 -33 -43 -33 -59
0 -23 -4 -26 -34 -26 -71 0 -117 -88 -96 -183 17 -80 48 -135 120 -211 49 -52
69 -81 74 -108 4 -21 4 -38 1 -38 -12 0 -101 72 -156 126 -83 81 -113 142
-113 229 0 61 4 79 34 135 19 36 62 93 95 126 l61 62 40 -10 39 -11 -32 -32z
m99 -6 c19 -10 68 -105 68 -133 0 -19 -55 -76 -72 -75 -7 0 -32 25 -55 55 -51
64 -56 102 -18 139 26 27 46 31 77 14z m504 -54 c3 -20 5 -38 3 -40 -2 -2 -19
5 -38 14 l-34 18 22 22 c29 29 39 27 47 -14z m57 14 c53 -27 134 -99 174 -153
52 -71 55 -89 8 -47 -20 17 -39 31 -44 31 -5 0 -25 14 -46 30 -21 17 -55 35
-76 42 -35 10 -39 15 -39 44 0 18 -3 39 -6 48 -7 19 0 20 29 5z m-150 -86 c6
-32 2 -42 -20 -65 -31 -32 -43 -35 -43 -11 0 9 -11 35 -25 59 -28 48 -26 51
46 53 34 1 37 -1 42 -36z m-183 18 c0 -6 -5 -13 -10 -16 -6 -4 -19 -23 -29
-44 l-20 -38 -45 11 c-54 12 -55 32 -2 28 26 -2 36 1 36 12 0 8 -6 17 -12 20
-21 8 21 36 54 36 15 0 28 -4 28 -9z m246 -5 c21 -16 19 -22 -11 -28 -14 -2
-21 3 -23 20 -4 25 6 28 34 8z m-598 -24 c5 -16 24 -45 41 -64 l30 -35 -21
-42 -21 -42 -17 29 c-23 38 -64 69 -101 77 -21 5 -29 11 -25 22 3 8 6 18 6 22
0 5 9 20 21 35 29 37 74 36 87 -2z m407 -18 c12 4 20 -4 31 -29 20 -48 18 -79
-8 -128 -14 -26 -22 -61 -22 -91 -1 -27 -5 -51 -11 -53 -6 -2 -9 17 -6 48 3
57 -18 126 -49 154 -25 23 -25 39 1 82 17 27 24 31 35 22 8 -6 21 -9 29 -5z
m225 -23 c0 -27 -15 -34 -31 -15 -10 13 -10 17 2 25 22 13 29 11 29 -10z m88
0 c11 -7 11 -9 -1 -14 -9 -3 -18 1 -21 9 -6 16 2 18 22 5z m-115 -91 c-24 -30
-43 -90 -43 -133 l0 -44 -52 5 c-29 2 -55 6 -56 8 -2 1 4 36 13 76 16 74 31
104 68 146 l21 22 31 -32 c25 -27 28 -36 18 -48z m58 57 c-10 -9 -11 -8 -5 6
3 10 9 15 12 12 3 -3 0 -11 -7 -18z m-406 -17 c19 -7 25 -15 21 -26 -3 -9 -9
-47 -12 -85 -4 -38 -10 -69 -13 -69 -38 2 -88 113 -74 168 6 25 34 29 78 12z
m540 -35 c31 -81 1 -172 -74 -222 -41 -28 -71 -29 -102 -4 l-23 19 45 50 c47
52 69 104 69 166 0 34 2 36 34 36 31 0 36 -4 51 -45z m-645 -7 c0 -24 3 -53 6
-65 5 -18 3 -21 -15 -16 -15 4 -29 -4 -51 -27 l-30 -32 0 46 c0 26 7 60 15 77
13 24 20 28 41 23 23 -6 25 -4 19 15 -4 12 -2 21 4 21 6 0 11 -19 11 -42z
m-159 -53 c15 -28 30 -65 34 -84 l7 -34 -33 20 c-48 29 -99 107 -99 150 l0 35
33 -19 c18 -11 43 -40 58 -68z m675 -10 c-9 -23 -30 -54 -46 -70 l-30 -29 0
38 c0 43 21 89 59 129 l26 29 3 -28 c2 -15 -4 -46 -12 -69z m201 45 c18 -26
21 -41 17 -71 -5 -32 -4 -39 10 -39 9 0 16 -5 16 -11 0 -22 -72 -147 -99 -173
l-28 -27 -39 40 -40 39 35 18 c67 37 113 147 93 225 -12 49 2 49 35 -1z m-525
-20 c18 -34 25 -121 12 -154 -9 -23 -30 -20 -48 6 -17 23 -20 85 -10 151 8 45
20 44 46 -3z m-180 -81 c13 -6 39 -32 59 -58 l36 -47 -23 -28 c-22 -25 -29
-54 -25 -98 4 -31 -16 -20 -52 30 -49 67 -78 128 -70 149 5 16 42 63 49 63 2
0 13 -5 26 -11z m297 -123 c10 -12 9 -20 -5 -41 l-17 -27 -14 27 c-24 44 6 77
36 41z m51 4 c0 -5 -2 -10 -4 -10 -3 0 -8 5 -11 10 -3 6 -1 10 4 10 6 0 11 -4
11 -10z m-200 -49 c0 -63 -67 -127 -72 -68 -4 60 19 107 52 107 17 0 20 -7 20
-39z m244 11 c3 -5 -7 -18 -22 -29 l-28 -21 4 29 c4 28 33 41 46 21z m149 -50
c28 -25 20 -40 -33 -63 -35 -15 -50 -27 -50 -40 0 -14 -7 -19 -26 -19 l-26 0
30 34 c17 20 33 52 37 76 6 36 9 40 28 34 12 -3 30 -13 40 -22z m-139 -14 c-7
-26 -33 -58 -46 -58 -17 0 -7 32 17 55 30 31 38 32 29 3z m-83 -39 c-8 -22
-10 -22 -16 -5 -5 11 -3 21 6 26 19 12 21 7 10 -21z m-267 -29 c7 0 23 -11 36
-25 l23 -25 -22 0 c-37 0 -92 31 -102 57 -15 41 -10 46 22 19 17 -14 36 -26
43 -26z m126 36 c0 -7 7 -19 15 -26 21 -17 19 -25 -9 -39 -20 -11 -28 -10 -50
4 l-27 18 28 28 c31 32 43 36 43 15z m84 -72 c26 -10 18 -24 -14 -24 -29 0
-38 9 -23 23 8 9 17 9 37 1z m159 -66 c-17 -50 -7 -94 49 -208 32 -63 66 -138
77 -166 l20 -52 -31 -6 c-37 -7 -44 -2 -53 39 l-6 30 16 -27 c15 -27 26 -34
37 -22 6 5 -90 238 -152 372 l-29 62 40 0 c38 0 40 -2 32 -22z m160 -491 c-2
-4 -11 -3 -19 4 -12 10 -12 14 -2 20 13 9 30 -10 21 -24z m197 -24 c38 -49 9
-151 -52 -184 -17 -9 -19 -8 -15 8 3 10 11 53 18 95 10 59 10 83 1 103 -11 24
-10 25 7 15 11 -5 29 -22 41 -37z m-106 15 c24 -39 29 -69 15 -94 -7 -13 -17
-24 -23 -24 -12 0 -47 120 -39 133 9 14 33 7 47 -15z m-139 -4 c23 -9 42 -52
46 -104 l4 -45 -39 0 -40 0 -19 63 c-23 80 -8 107 48 86z m-101 -64 c2 -30 6
-63 10 -72 6 -13 4 -18 -8 -18 -9 0 -16 6 -16 14 0 7 -9 16 -20 19 -25 7 -27
57 -4 93 24 36 35 26 38 -36z m-326 -75 c20 -9 47 -25 59 -37 26 -24 40 -82
25 -101 -5 -6 -13 -30 -17 -52 -18 -102 -135 -244 -268 -323 -78 -47 -123 -51
-191 -18 -71 35 -171 141 -186 197 -12 45 -6 109 16 150 32 64 168 145 298
179 89 24 213 26 264 5z m582 -29 c0 -14 -4 -28 -10 -31 -6 -4 -10 7 -10 24 0
17 5 31 10 31 6 0 10 -11 10 -24z m-205 -26 c3 -5 2 -10 -4 -10 -5 0 -13 5
-16 10 -3 6 -2 10 4 10 5 0 13 -4 16 -10z m103 -2 c-6 -18 -22 -20 -43 -3 -19
14 -18 14 13 15 22 0 32 -4 30 -12z m17 -92 c8 -40 45 -287 44 -299 0 -14 -99
303 -99 319 0 21 50 3 55 -20z m59 -7 c3 -17 6 -68 5 -113 l-1 -81 -13 70
c-25 143 -26 155 -11 155 7 0 16 -14 20 -31z m4451 -629 c15 -7 9 -9 -25 -9
-25 0 -52 4 -60 9 -19 13 56 13 85 0z m-24 -40 c33 0 39 -3 39 -21 0 -32 -39
-216 -52 -244 -12 -28 -28 -33 -28 -10 0 8 -4 15 -9 15 -14 0 -31 93 -31 170
0 79 7 103 27 96 8 -3 32 -6 54 -6z m-4217 -395 c33 -126 53 -235 43 -225 -6
6 -127 485 -126 497 1 15 50 -143 83 -272z m2541 -96 c-88 -18 -300 -30 -355
-21 -54 9 -53 10 45 11 55 1 118 6 140 10 22 5 78 9 125 9 70 0 78 -2 45 -9z
m-1108 -125 c-3 -3 -12 -4 -19 -1 -8 3 -5 6 6 6 11 1 17 -2 13 -5z m-647 -85
c-36 -11 -111 -37 -167 -58 -57 -21 -103 -37 -103 -35 0 6 113 61 155 74 47
16 144 38 165 38 8 0 -14 -9 -50 -19z m-614 -136 c27 -22 27 -23 4 -12 -36 17
-80 60 -80 78 1 11 8 7 24 -13 13 -15 37 -39 52 -53z"/>
<path d="M710 1928 c0 -19 98 -211 124 -243 33 -40 45 -24 17 23 -12 20 -43
81 -69 134 -26 54 -53 98 -59 98 -7 0 -13 -5 -13 -12z"/>
<path d="M882 1869 c-34 -18 -62 -38 -62 -46 0 -19 10 -17 76 19 72 38 70 36
58 48 -7 7 -31 0 -72 -21z"/>
<path d="M2428 3350 c-318 -54 -586 -330 -680 -701 -61 -242 35 -444 221 -466
85 -10 210 39 361 140 107 72 200 148 200 164 0 22 -16 15 -77 -36 -128 -106
-283 -199 -377 -226 -115 -33 -207 -1 -267 93 -38 60 -49 101 -49 188 0 257
194 585 427 723 170 100 415 134 438 60 12 -36 -38 -152 -94 -223 -34 -43 -38
-56 -17 -56 30 0 118 143 135 220 24 109 -49 149 -221 120z"/>
<path d="M4165 2993 c-22 -6 -35 -21 -35 -40 0 -18 37 -53 55 -53 17 0 55 35
55 50 0 12 -37 50 -47 49 -5 -1 -17 -4 -28 -6z m33 -45 c-6 -18 -25 -20 -31
-3 -5 10 0 15 14 15 12 0 19 -5 17 -12z"/>
<path d="M3930 2964 c-22 -26 -1 -69 34 -69 36 0 58 30 45 63 -10 26 -59 31
-79 6z m52 -29 c0 -5 -5 -11 -11 -13 -6 -2 -11 4 -11 13 0 9 5 15 11 13 6 -2
11 -8 11 -13z"/>
<path d="M3489 2715 c-89 -158 -320 -451 -304 -385 4 14 16 44 27 67 11 23 17
47 14 52 -6 10 29 152 45 180 4 9 13 38 18 66 9 49 9 50 -22 77 -44 38 -96 37
-174 -2 -110 -55 -188 -167 -203 -294 -8 -68 5 -203 22 -223 25 -30 140 1 209
57 l38 30 -15 -44 c-17 -49 -61 -91 -234 -221 -58 -44 -125 -98 -149 -120 -89
-81 -125 -171 -83 -208 27 -24 57 -21 122 14 138 73 266 236 335 424 13 35 43
76 101 137 45 48 110 126 144 173 34 47 64 85 65 85 4 0 -113 -297 -126 -321
-5 -11 -16 -19 -24 -19 -20 0 -19 -19 1 -27 26 -10 49 25 99 154 43 108 65
142 65 98 0 -16 30 -35 56 -35 9 0 33 12 51 26 l35 26 -16 -30 c-22 -42 -67
-202 -60 -213 17 -27 98 1 233 80 29 17 54 31 56 31 3 0 5 -20 5 -45 0 -92 48
-132 135 -113 69 15 179 73 248 132 l67 57 0 -71 c0 -58 4 -74 21 -91 25 -25
54 -20 115 21 58 41 110 104 130 159 42 115 64 164 94 211 18 28 34 49 36 47
2 -1 -8 -39 -22 -82 -55 -173 -74 -262 -63 -295 23 -65 92 -45 138 41 42 78
145 249 148 245 2 -1 -6 -29 -17 -60 -27 -79 -48 -195 -40 -226 9 -38 51 -54
92 -37 47 20 228 185 228 208 0 22 -27 26 -32 4 -4 -18 -162 -162 -199 -181
-58 -29 -74 3 -53 103 19 91 39 150 86 261 40 91 43 117 14 92 -26 -21 -151
-210 -211 -320 -81 -146 -101 -165 -125 -121 -12 24 21 158 81 331 22 63 43
123 46 133 21 65 -96 -62 -159 -173 -14 -25 -35 -75 -47 -111 -37 -113 -100
-190 -189 -232 -32 -15 -42 3 -42 80 0 71 33 173 56 173 19 0 18 14 -2 31 -14
12 -19 11 -31 -6 -74 -106 -113 -151 -164 -189 -79 -60 -163 -98 -225 -104
-69 -6 -84 10 -84 89 l0 60 116 75 c137 89 210 154 235 209 21 45 25 100 8
111 -27 16 -86 23 -124 13 -99 -26 -162 -105 -220 -278 l-35 -106 -118 -67
c-164 -95 -171 -93 -127 38 34 101 96 223 161 316 30 43 54 82 54 89 0 27 -32
-7 -138 -147 -63 -82 -122 -153 -133 -158 -62 -29 -62 86 0 238 23 55 41 101
41 103 0 1 -6 3 -14 3 -7 0 -38 -43 -67 -95z m-249 40 c19 -23 15 -56 -25
-204 -22 -83 -45 -147 -59 -166 -38 -50 -125 -104 -178 -111 l-46 -6 -7 46
c-4 26 -6 86 -3 134 3 75 9 96 37 148 39 74 68 103 141 143 61 34 120 40 140
16z m924 -5 c16 -6 26 -17 26 -30 0 -34 -36 -94 -81 -135 -41 -36 -216 -155
-230 -155 -10 0 17 85 52 161 36 77 90 134 145 154 48 17 56 18 88 5z m-1099
-651 c-74 -147 -182 -264 -296 -320 -56 -26 -79 -21 -79 20 0 44 66 120 182
209 56 42 129 98 161 125 33 26 62 45 64 43 2 -2 -12 -37 -32 -77z"/>
<path d="M6253 2175 c-35 -15 -75 -72 -182 -257 -111 -193 -175 -371 -187
-518 l-7 -80 26 0 c21 0 27 6 32 33 33 154 240 590 345 727 26 34 34 72 18 92
-12 15 -17 15 -45 3z m27 -30 c0 -3 -9 -18 -19 -33 -93 -132 -218 -377 -297
-586 -44 -114 -53 -132 -48 -91 18 134 89 313 200 502 83 143 133 213 149 213
8 0 15 -2 15 -5z"/>
<path d="M2681 1683 c-5 -10 -12 -36 -16 -58 -17 -92 -106 -226 -221 -334 -87
-81 -118 -102 -107 -74 4 10 16 32 29 48 52 71 103 212 104 288 0 38 -29 15
-45 -35 -40 -122 -100 -255 -129 -287 -42 -46 -141 -109 -182 -117 -45 -8 -64
8 -64 57 0 69 91 283 169 399 35 50 37 60 17 60 -16 0 -76 -91 -125 -188 -42
-84 -91 -232 -91 -276 0 -43 36 -86 72 -86 27 0 115 40 161 72 23 16 28 17 18
5 -8 -10 -56 -47 -108 -83 -192 -134 -326 -262 -369 -353 -22 -45 -21 -106 0
-130 44 -49 115 -33 182 42 60 67 208 289 273 410 40 73 61 101 98 128 118 84
262 244 309 341 16 34 19 36 34 23 8 -8 30 -20 47 -27 l32 -14 -76 -129 c-98
-169 -123 -222 -123 -265 0 -46 12 -64 38 -56 34 11 164 99 235 160 37 31 67
54 67 52 0 -3 -5 -28 -11 -55 -19 -89 19 -155 88 -155 29 0 43 8 81 48 l45 48
-7 -51 c-6 -49 -6 -51 17 -51 13 0 50 13 81 28 31 16 56 27 56 25 0 -2 -9 -21
-20 -43 -13 -26 -16 -41 -9 -45 13 -8 6 -17 69 85 161 259 284 394 442 484 46
27 47 27 58 7 18 -35 -5 -93 -87 -214 -168 -247 -199 -294 -217 -335 -18 -41
-18 -60 2 -48 6 3 51 71 102 150 106 168 190 269 296 360 76 65 122 90 142 77
6 -3 -31 -64 -90 -146 -147 -206 -164 -253 -112 -314 37 -44 67 -40 160 20
103 67 100 67 107 21 11 -64 79 -109 147 -97 58 11 92 34 162 109 l68 71 0
-42 c0 -83 89 -145 157 -109 17 8 54 51 86 98 32 46 77 106 101 133 l45 50
-24 -66 c-52 -145 -52 -232 -1 -245 29 -7 111 31 185 87 l51 39 14 -35 c41
-98 180 -83 309 35 l59 53 -7 -70 c-7 -64 -5 -73 14 -92 42 -42 63 -31 227
123 86 82 122 122 115 129 -15 15 -57 -7 -79 -41 -28 -46 -199 -202 -221 -202
-14 0 -23 9 -27 26 -10 38 23 189 50 232 33 52 106 203 106 219 0 7 -8 13 -17
13 -10 0 -26 13 -35 30 -41 71 -156 51 -212 -38 -69 -109 -73 -217 -10 -258
22 -15 32 -16 67 -7 23 7 43 10 45 8 10 -9 -148 -153 -189 -173 -58 -28 -122
-29 -149 -2 -31 31 -35 65 -11 96 12 15 21 31 21 35 0 23 -33 3 -92 -53 -35
-35 -94 -79 -131 -98 -63 -33 -67 -34 -83 -18 -17 16 -17 22 -1 95 22 103 83
223 152 300 30 33 55 64 55 67 0 54 -236 -183 -349 -351 -75 -112 -109 -127
-163 -73 -27 27 -29 35 -25 78 2 26 8 57 12 70 15 46 -24 21 -102 -63 -91
-100 -160 -142 -217 -131 -45 9 -76 48 -76 96 0 35 5 41 78 95 42 32 121 102
175 156 86 86 97 102 97 133 0 103 -156 80 -241 -36 -38 -53 -101 -176 -123
-243 -15 -46 -23 -54 -105 -108 -49 -32 -99 -61 -110 -64 -30 -8 -61 23 -61
59 0 40 18 72 137 240 90 128 103 150 93 168 -12 22 -51 27 -93 11 -14 -6 -57
-37 -96 -71 -71 -61 -80 -65 -60 -29 18 34 14 99 -8 121 -20 20 -20 20 -64 -2
-65 -34 -128 -78 -186 -133 -29 -28 -53 -48 -53 -45 0 3 11 36 25 72 28 76 30
86 13 86 -7 0 -62 -90 -122 -201 -74 -134 -122 -211 -147 -234 -36 -33 -137
-90 -144 -83 -12 11 34 155 71 223 50 93 134 282 134 301 0 69 -128 -143 -179
-296 -23 -69 -103 -188 -145 -215 -32 -21 -62 -12 -81 25 -20 39 -19 60 9 144
17 48 44 98 81 147 98 131 160 275 89 208 -33 -31 -116 -152 -149 -219 -30
-59 -106 -139 -201 -212 -58 -44 -144 -98 -157 -98 -16 0 -5 54 19 103 51 99
177 312 206 345 27 32 39 92 18 92 -5 0 -21 -20 -36 -45 -30 -52 -58 -58 -93
-21 -24 26 -27 43 -17 97 9 41 -7 61 -23 32z m2884 -96 c22 -32 18 -60 -17
-129 -37 -73 -62 -104 -100 -124 -40 -21 -65 -17 -84 11 -43 66 30 243 109
263 43 11 75 4 92 -21z m-1131 7 c30 -12 17 -50 -39 -111 -54 -60 -242 -219
-249 -212 -9 8 56 144 99 208 65 98 130 138 189 115z m-2210 -536 c-49 -96
-187 -304 -261 -395 -63 -77 -141 -92 -157 -28 -19 76 113 228 340 391 49 35
90 64 92 64 1 0 -5 -15 -14 -32z"/>
</g>
</svg>
