<?xml version="1.0" standalone="no"?>
<!DOCTYPE svg PUBLIC "-//W3C//DTD SVG 20010904//EN"
 "http://www.w3.org/TR/2001/REC-SVG-20010904/DTD/svg10.dtd">
<svg version="1.0" xmlns="http://www.w3.org/2000/svg"
 width="51.000000pt" height="31.000000pt" viewBox="0 0 51.000000 31.000000"
 preserveAspectRatio="xMidYMid meet">

<g transform="translate(0.000000,31.000000) scale(0.100000,-0.100000)"
fill="#fcffa6" stroke="none">
<path d="M209 286 c-59 -16 -125 -55 -169 -101 l-35 -37 49 -45 c65 -59 117
-84 187 -90 47 -5 66 -1 112 20 58 27 147 100 147 122 0 18 -96 94 -145 115
-58 25 -94 29 -146 16z m-33 -67 c-36 -42 -35 -96 1 -140 l27 -32 -35 18 c-37
19 -99 74 -99 88 0 15 104 97 123 97 5 0 -3 -14 -17 -31z m250 -40 l27 -28
-34 -32 c-65 -61 -137 -95 -84 -39 38 40 40 95 6 141 l-24 32 41 -23 c23 -13
54 -36 68 -51z m-119 31 c28 -26 36 -52 24 -83 -22 -58 -87 -71 -131 -27 -65
65 40 173 107 110z"/>
<path d="M215 195 c-30 -29 -32 -58 -5 -85 39 -39 110 -11 110 42 0 29 -9 42
-37 57 -31 16 -41 14 -68 -14z m20 -14 c-3 -6 -11 -11 -17 -11 -6 0 -6 6 2 15
14 17 26 13 15 -4z m5 -51 c8 -5 11 -12 7 -16 -4 -4 -15 0 -24 9 -18 18 -8 23
17 7z"/>
</g>
</svg>
